<svg width="15" height="15" viewBox="0 0 15 15" fill="none" xmlns="http://www.w3.org/2000/svg">
<path d="M7.55733 0.890423C7.30734 0.640357 6.96826 0.499831 6.61467 0.499756H1.83333C1.47971 0.499756 1.14057 0.640232 0.890524 0.89028C0.640476 1.14033 0.5 1.47947 0.5 1.83309V6.61442C0.500076 6.96802 0.640601 7.3071 0.890667 7.55709L6.69333 13.3598C6.99634 13.6609 7.40616 13.8298 7.83333 13.8298C8.2605 13.8298 8.67032 13.6609 8.97333 13.3598L13.36 8.97309C13.6611 8.67008 13.8301 8.26026 13.8301 7.83309C13.8301 7.40592 13.6611 6.9961 13.36 6.69309L7.55733 0.890423Z" stroke="#0A0A0A" stroke-width="0.999569" stroke-linecap="round" stroke-linejoin="round"/>
</svg>
