<svg width="20" height="20" viewBox="0 0 20 20" fill="none" xmlns="http://www.w3.org/2000/svg">
<g clip-path="url(#clip0_549_8405)">
<mask id="mask0_549_8405" style="mask-type:luminance" maskUnits="userSpaceOnUse" x="0" y="0" width="20" height="20">
<path d="M20 0H0V20H20V0Z" fill="white"/>
</mask>
<g mask="url(#mask0_549_8405)">
<path d="M14.1665 17.7082H5.83317C2.7915 17.7082 1.0415 15.9582 1.0415 12.9165V7.08317C1.0415 4.0415 2.7915 2.2915 5.83317 2.2915H14.1665C17.2082 2.2915 18.9582 4.0415 18.9582 7.08317V12.9165C18.9582 15.9582 17.2082 17.7082 14.1665 17.7082ZM5.83317 3.5415C3.44984 3.5415 2.2915 4.69984 2.2915 7.08317V12.9165C2.2915 15.2998 3.44984 16.4582 5.83317 16.4582H14.1665C16.5498 16.4582 17.7082 15.2998 17.7082 12.9165V7.08317C17.7082 4.69984 16.5498 3.5415 14.1665 3.5415H5.83317Z" fill="#939393"/>
<path d="M9.99951 10.725C9.29951 10.725 8.59117 10.5083 8.04949 10.0667L5.44116 7.98331C5.17449 7.76664 5.12449 7.37498 5.34116 7.10831C5.55782 6.84164 5.94949 6.79164 6.21616 7.00831L8.82451 9.09167C9.45784 9.6 10.5328 9.6 11.1662 9.09167L13.7745 7.00831C14.0412 6.79164 14.4412 6.83331 14.6495 7.10831C14.8662 7.37498 14.8245 7.77498 14.5495 7.98331L11.9412 10.0667C11.4078 10.5083 10.6995 10.725 9.99951 10.725Z" fill="#939393"/>
</g>
</g>
<defs>
<clipPath id="clip0_549_8405">
<rect width="20" height="20" fill="white"/>
</clipPath>
</defs>
</svg>
