<svg width="17" height="17" viewBox="0 0 17 17" fill="none" xmlns="http://www.w3.org/2000/svg">
<path d="M15.98 8.67725C15.98 8.12475 15.9304 7.5935 15.8383 7.0835H8.5V10.101H12.6933C12.5092 11.0714 11.9567 11.8931 11.1279 12.4456V14.4077H13.6567C15.13 13.0477 15.98 11.0502 15.98 8.67725Z" fill="#4285F4"/>
<path d="M8.49978 16.2915C10.6035 16.2915 12.3673 15.5973 13.6564 14.4073L11.1277 12.4452C10.4335 12.9127 9.54811 13.1961 8.49978 13.1961C6.47395 13.1961 4.7527 11.829 4.13645 9.9873H1.54395V11.999C2.82603 14.5419 5.45394 16.2915 8.49978 16.2915Z" fill="#34A853"/>
<path d="M4.13683 9.98031C3.981 9.51281 3.88891 9.01698 3.88891 8.4999C3.88891 7.98281 3.981 7.48698 4.13683 7.01948V5.00781H1.54433C1.01308 6.05615 0.708496 7.23906 0.708496 8.4999C0.708496 9.76073 1.01308 10.9436 1.54433 11.992L4.13683 9.98031Z" fill="#FBBC05"/>
<path d="M8.49978 3.811C9.64728 3.811 10.6673 4.20766 11.4819 4.97266L13.7131 2.74141C12.3602 1.48058 10.6035 0.708496 8.49978 0.708496C5.45394 0.708496 2.82603 2.45808 1.54395 5.00808L4.13645 7.01975C4.7527 5.17808 6.47395 3.811 8.49978 3.811Z" fill="#EA4335"/>
</svg>
