<svg width="20" height="22" viewBox="0 0 20 22" fill="none" xmlns="http://www.w3.org/2000/svg">
<path d="M9.64746 5.18945V8.51945" stroke="black" stroke-width="1.5" stroke-miterlimit="10" stroke-linecap="round"/>
<path d="M9.66734 0.75C5.98736 0.75 3.00736 3.73 3.00736 7.41V9.51C3.00736 10.19 2.72736 11.21 2.37736 11.79L1.10736 13.91C0.327359 15.22 0.867358 16.68 2.30736 17.16C7.08736 18.75 12.2573 18.75 17.0373 17.16C18.3873 16.71 18.9673 15.13 18.2373 13.91L16.9673 11.79C16.6173 11.21 16.3373 10.18 16.3373 9.51V7.41C16.3273 3.75 13.3273 0.75 9.66734 0.75Z" stroke="black" stroke-width="1.5" stroke-miterlimit="10" stroke-linecap="round"/>
<path d="M12.9773 17.5703C12.9773 19.4003 11.4773 20.9003 9.64734 20.9003C8.73734 20.9003 7.89734 20.5203 7.29738 19.9203C6.69738 19.3203 6.31738 18.4803 6.31738 17.5703" stroke="black" stroke-width="1.5" stroke-miterlimit="10"/>
</svg>
