<svg width="24" height="24" viewBox="0 0 24 24" fill="none" xmlns="http://www.w3.org/2000/svg">
<g clip-path="url(#clip0_464_5278)">
<path d="M19.7488 14.7495C19.9352 14.9353 20.0831 15.156 20.1841 15.3991C20.285 15.6421 20.3369 15.9027 20.3369 16.1659C20.3369 16.4291 20.285 16.6897 20.1841 16.9327C20.0831 17.1758 19.9352 17.3965 19.7488 17.5823L17.5825 19.7486C17.3968 19.935 17.176 20.0829 16.933 20.1838C16.6899 20.2848 16.4293 20.3367 16.1661 20.3367C15.903 20.3367 15.6424 20.2848 15.3993 20.1838C15.1563 20.0829 14.9355 19.935 14.7497 19.7486L4.25168 9.25051C3.87721 8.87423 3.66699 8.36497 3.66699 7.83411C3.66699 7.30324 3.87721 6.79398 4.25168 6.4177L6.41795 4.25144C6.79423 3.87697 7.30349 3.66675 7.83435 3.66675C8.36521 3.66675 8.87447 3.87697 9.25075 4.25144L19.7488 14.7495Z" stroke="white" stroke-width="1.66636" stroke-linecap="round" stroke-linejoin="round"/>
<path d="M14.083 12.4166L15.7494 10.7502" stroke="white" stroke-width="1.66636" stroke-linecap="round" stroke-linejoin="round"/>
<path d="M11.584 9.91709L13.2503 8.25073" stroke="white" stroke-width="1.66636" stroke-linecap="round" stroke-linejoin="round"/>
<path d="M9.08398 7.41758L10.7503 5.75122" stroke="white" stroke-width="1.66636" stroke-linecap="round" stroke-linejoin="round"/>
<path d="M16.583 14.9161L18.2494 13.2498" stroke="white" stroke-width="1.66636" stroke-linecap="round" stroke-linejoin="round"/>
</g>
<defs>
<clipPath id="clip0_464_5278">
<rect width="19.9963" height="19.9963" fill="white" transform="translate(2.00195 2.00195)"/>
</clipPath>
</defs>
</svg>
