<svg width="20" height="20" viewBox="0 0 20 20" fill="none" xmlns="http://www.w3.org/2000/svg">
<mask id="mask0_1481_98" style="mask-type:luminance" maskUnits="userSpaceOnUse" x="0" y="0" width="20" height="20">
<path d="M20 0H0V20H20V0Z" fill="white"/>
</mask>
<g mask="url(#mask0_1481_98)">
<path d="M17.4991 5.60876C17.4824 5.60876 17.4574 5.60876 17.4324 5.60876C13.0241 5.16709 8.62406 5.00043 4.26574 5.44209L2.56574 5.60876C2.21574 5.64209 1.90741 5.39209 1.87408 5.04209C1.84074 4.69209 2.09074 4.39209 2.43241 4.35876L4.13241 4.19209C8.56573 3.74209 13.0574 3.91709 17.5574 4.35876C17.8991 4.39209 18.1491 4.70043 18.1157 5.04209C18.0907 5.36709 17.8157 5.60876 17.4991 5.60876Z" fill="#FF4B4B"/>
<path d="M7.08265 4.76663C7.04932 4.76663 7.01598 4.76663 6.97432 4.75829C6.64098 4.69996 6.40765 4.37496 6.46598 4.04163L6.64932 2.94996C6.78265 2.14996 6.96598 1.04163 8.90764 1.04163H11.091C13.041 1.04163 13.2243 2.19163 13.3493 2.95829L13.5326 4.04163C13.591 4.38329 13.3576 4.70829 13.0243 4.75829C12.6826 4.81663 12.3576 4.58329 12.3076 4.24996L12.1243 3.16663C12.0076 2.44163 11.9826 2.29996 11.0993 2.29996H8.91597C8.03265 2.29996 8.01598 2.41663 7.89098 3.15829L7.69932 4.24163C7.64932 4.54996 7.38265 4.76663 7.08265 4.76663Z" fill="#FF4B4B"/>
<path d="M12.674 18.958H7.32402C4.41569 18.958 4.29902 17.3497 4.20735 16.0497L3.66569 7.65803C3.64069 7.31636 3.90735 7.01636 4.24902 6.99136C4.59902 6.9747 4.89069 7.23303 4.91569 7.5747L5.45735 15.9664C5.54902 17.233 5.58235 17.708 7.32402 17.708H12.674C14.424 17.708 14.4574 17.233 14.5407 15.9664L15.0824 7.5747C15.1074 7.23303 15.4074 6.9747 15.749 6.99136C16.0907 7.01636 16.3574 7.30803 16.3324 7.65803L15.7907 16.0497C15.699 17.3497 15.5824 18.958 12.674 18.958Z" fill="#FF4B4B"/>
<path d="M11.3824 14.375H8.60744C8.26576 14.375 7.98242 14.0917 7.98242 13.75C7.98242 13.4083 8.26576 13.125 8.60744 13.125H11.3824C11.7241 13.125 12.0074 13.4083 12.0074 13.75C12.0074 14.0917 11.7241 14.375 11.3824 14.375Z" fill="#FF4B4B"/>
<path d="M12.0827 11.0416H7.91602C7.57435 11.0416 7.29102 10.7583 7.29102 10.4166C7.29102 10.075 7.57435 9.79163 7.91602 9.79163H12.0827C12.4243 9.79163 12.7077 10.075 12.7077 10.4166C12.7077 10.7583 12.4243 11.0416 12.0827 11.0416Z" fill="#FF4B4B"/>
</g>
</svg>
